# xmcd
#
# Track frame offsets: 
#        150
#        11170
#        22431
#        35321
#        48212
#        63445
#        74645
#        86511
#        97274
#        110086
#        120690
#        130315
#        144565
#        157140
#        168211
#
# Disc length: 2504 seconds
#
# Revision: 3
# Processed by: cddbd v1.5.2PL0 Copyright (c) Steve Scherf et al.
# Submitted via: ExactAudioCopy v0.99pb5
#
DISCID=df09c60f
DTITLE=Pegy Lee - Come Rain Or Come Shine
DYEAR=2010
DGENRE=Blues
TTITLE0=Once Around The Moon
TTITLE1=You Was Right Baby
TTITLE2=I'm Looking Out The WIndow
TTITLE3=It's A Good Day
TTITLE4=Fever
TTITLE5=Why Don't You Do Right (Get Me Some Money Too)
TTITLE6=Come Rain Or Come Shine
TTITLE7=Too CLose For Comfort
TTITLE8=Oh What A Beautiful Morning
TTITLE9=I've Got The World On A String
TTITLE10=Big Spender
TTITLE11=Black Coffee
TTITLE12=I Love Being Here With You
TTITLE13=Senza Fine
TTITLE14=Is That All There Is?
EXTD=
EXTT0=
EXTT1=
EXTT2=
EXTT3=
EXTT4=
EXTT5=
EXTT6=
EXTT7=
EXTT8=
EXTT9=
EXTT10=
EXTT11=
EXTT12=
EXTT13=
EXTT14=
PLAYORDER=
